<?xml version="1.0" encoding="UTF-8" standalone="no"?>
<svg
   xmlns:dc="http://purl.org/dc/elements/1.1/"
   xmlns:cc="http://creativecommons.org/ns#"
   xmlns:rdf="http://www.w3.org/1999/02/22-rdf-syntax-ns#"
   xmlns:svg="http://www.w3.org/2000/svg"
   xmlns="http://www.w3.org/2000/svg"
   viewBox="0 0 255.60001 255.88"
   height="255.88"
   width="255.60001"
   xml:space="preserve"
   id="svg2"
   version="1.1"><metadata
     id="metadata8"><rdf:RDF><cc:Work
         rdf:about=""><dc:format>image/svg+xml</dc:format><dc:type
           rdf:resource="http://purl.org/dc/dcmitype/StillImage" /></cc:Work></rdf:RDF></metadata><defs
     id="defs6" /><g
     transform="matrix(1.3333333,0,0,-1.3333333,0,255.88)"
     id="g10"><g
       transform="scale(0.1)"
       id="g12"><path
         id="path14"
         style="fill:#494241;fill-opacity:1;fill-rule:nonzero;stroke:none"
         d="m 870.199,-0.0117188 c -147.051,0 -294.094,0.0429688 -441.144,0.1601568 C 238.66,0.308594 83.6445,109.129 21.875,285.109 5.01172,333.141 -0.0195313,382.859 0.109375,433.57 0.488281,608.672 0.253906,783.738 0.253906,958.836 h 0.554688 c 0,185.154 -2.187504,370.344 0.617186,555.464 2.8125,185.36 133.80822,345.3 314.07022,390.86 36.977,9.34 74.738,13.46 112.641,13.5 205.586,0.22 411.191,0.44 616.783,0.44 148.46,0 296.91,-0.12 445.36,-0.44 208.71,-0.46 374.69,-134.91 418.46,-336.72 4.75,-21.89 7.85,-44.11 7.85,-66.7 -0.1,-371.09 1.43,-742.181 -0.68,-1113.252 C 1914.76,202.359 1750.05,26.1797 1551.4,4.10938 c -25.28,-2.78907 -50.53,-4.07813 -75.91,-4.07813 -0.18,0 -0.37,0 -0.56,0 -31.47,0.0078125 -62.96,0.0078125 -94.44,0.0078125 -84.88,0 -169.75,-0.0078125 -254.63,-0.0195312 C 1040.65,0 955.418,-0.0117188 870.199,-0.0117188 M 277.277,627.691 c -15.027,0 -20.808,-3.941 -20.644,-20.511 0.816,-79.629 0.664,-159.301 0.094,-238.942 -0.094,-14.406 3.378,-20.34 18.75,-20.34 0.171,0 0.351,0 0.531,0 40.215,0.352 80.433,0.524 120.648,0.524 40.219,0 80.434,-0.172 120.641,-0.524 0.168,0 0.332,0 0.496,0 15.691,0 18.844,6.442 18.586,20.614 -0.715,39.41 -0.234,78.867 -0.234,118.32 0,39.43 -0.774,78.906 0.339,118.297 0.469,16.57 -3.668,22.68 -20.937,22.68 -0.274,0 -0.551,0 -0.828,0 -38.735,-0.469 -77.453,-0.668 -116.188,-0.668 -40.148,0 -80.308,0.211 -120.465,0.55 -0.265,0 -0.531,0 -0.789,0 m 395.871,-88.472 c -13.621,0 -17.765,-6.168 -17.043,-20.239 1.012,-20.058 1.524,-40.332 -0.109,-60.332 -1.664,-20.578 4.422,-27.527 25.965,-27.527 0.211,0 0.422,0.008 0.637,0.008 79.328,0.512 158.644,0.633 237.98,0.633 74.695,0 149.412,-0.114 224.102,-0.114 71.37,0 142.72,0.063 214.09,0.063 84.98,0 169.99,-0.082 254.97,-0.41 0.16,0 0.31,0 0.46,0 17.56,0 24.9,4.5 23.25,23.258 -1.54,17.679 -0.31,35.57 -0.33,53.382 -0.04,30.879 -0.06,30.938 -30.35,30.938 -287.91,0 -575.86,0 -863.79,0 -13.468,0 -26.945,-0.289 -40.414,-0.289 -8.976,0 -17.953,0.129 -26.914,0.558 -0.867,0.051 -1.703,0.071 -2.504,0.071 M 402.516,794.691 c 38.746,0 77.5,-0.191 116.246,-0.652 0.281,-0.008 0.554,-0.008 0.832,-0.008 17.148,0 21.234,6.051 21.058,22.66 -0.789,78.911 -0.308,157.84 -0.437,236.749 -0.012,6.76 1.965,14.04 -3.367,19.98 v 0 0 c 7.144,11.89 14.09,23.9 21.48,35.63 21.203,33.59 20.766,32.77 -12.969,54.93 -5.156,3.38 -9.136,4.97 -12.496,4.97 -5.476,0 -9.308,-4.23 -13.89,-11.8 -17.215,-28.43 -35.828,-55.99 -53.856,-83.9 -0.004,0 -0.004,0 -0.004,0 0,0 0,0.01 0.004,0.01 -48.789,0.12 -97.597,0.26 -146.379,0.31 -1.648,0 -3.238,0.01 -4.793,0.01 -51.254,0 -51.32,-1.64 -53.347,-55.92 0,0 0,0 0,0 -6.028,3.25 -12.258,6.16 -18.032,9.79 -17.925,11.26 -27.859,17.52 -35.535,17.52 -9.754,0 -15.859,-10.11 -30.078,-32.88 -6.894,-11.05 -6.379,-15.985 4.988,-22.832 26.868,-16.231 52.805,-33.985 79.125,-51.121 v 0 0 c 0.02,-41.016 0.731,-82.028 -0.257,-123.008 -0.383,-16.141 4.949,-21 20.543,-21 0.218,0 0.441,0 0.66,0 40.168,0.351 80.332,0.562 120.504,0.562 M 675.031,976.73 c -9.84,0 -13.765,-5.246 -13.468,-16.292 0.585,-22.458 1.472,-45.04 -0.254,-67.356 -1.539,-19.992 6.324,-24.121 24.574,-24.121 0.172,0 0.347,0 0.523,0 84.953,0.359 169.887,0.437 254.844,0.437 69.94,0 139.91,-0.046 209.85,-0.046 95.28,0 190.55,0 285.8,0 33.06,0 66.09,0.109 99.14,0.109 28.91,0 57.83,-0.082 86.74,-0.402 0.28,-0.008 0.55,-0.008 0.82,-0.008 14.49,0 19.93,4.679 19.11,19.789 -1.1,20.082 -1.8,40.41 0.13,60.359 2.22,22.914 -6.61,27.86 -28.25,27.86 -0.11,0 -0.22,0 -0.32,0 -192.37,-0.446 -384.72,-0.528 -577.1,-0.528 -115.873,0 -231.775,0.032 -347.65,0.032 -2.473,0 -4.957,-0.122 -7.43,-0.122 -1.406,0 -2.805,0.039 -4.199,0.161 -1.004,0.086 -1.953,0.128 -2.86,0.128 m -413.41,419.02 c -0.168,-42.54 0.125,-85.08 -0.715,-127.6 -0.289,-14.17 4.754,-18.61 18.465,-18.61 0.121,0 0.242,0 0.363,0 39.934,0.23 79.856,0.32 119.786,0.32 41.285,0 82.574,-0.09 123.867,-0.21 0.078,0 0.156,0 0.234,0 11.024,0 16.906,2.82 16.809,15.46 -0.789,88.13 -1.121,176.27 -1.582,264.41 -0.004,0 -0.008,-0.01 -0.012,-0.02 0,0 0,0.01 0.004,0.01 7.058,11.9 13.875,23.95 21.226,35.67 21.594,34.28 21.211,33.5 -12.312,55.28 -5.195,3.38 -9.231,5.02 -12.672,5.02 -5.394,0 -9.324,-4.03 -13.961,-11.67 -17.547,-28.9 -36.609,-56.87 -55.058,-85.22 v 0 c -56.446,0.12 -112.887,0.28 -169.336,0.36 -1.289,0.01 -2.528,0.01 -3.723,0.01 -31.031,0 -31.07,-1.25 -31.863,-33.75 -0.157,-6.13 0.8,-12.46 -3.477,-17.78 -4.723,2.49 -9.601,4.73 -14.141,7.52 -17.445,10.72 -27.179,16.71 -34.683,16.71 -9.68,0 -15.649,-9.96 -29.652,-32.59 -6.852,-11.08 -6.024,-16.51 5.175,-23.35 26.172,-15.97 51.555,-33.22 77.258,-49.97 v 0 0 m 1204.299,-52.71 c 51.06,0 102.12,-0.15 153.17,-0.73 0.4,-0.01 0.79,-0.01 1.18,-0.01 22.03,0 28.65,7.28 26.5,28.83 -1.76,17.63 -1.7,35.71 0,53.37 1.93,20.19 -4.62,26.07 -24.94,26.07 -0.2,0 -0.4,0 -0.61,0 -80.31,-0.48 -160.6,-0.59 -240.9,-0.59 -73.83,0 -147.67,0.09 -221.48,0.09 -75.53,0 -151.06,-0.11 -226.586,-0.11 -80.149,0 -160.301,0.13 -240.438,0.65 -0.226,0 -0.453,0 -0.679,0 -21.582,0 -27.641,-7.01 -25.805,-27.52 1.57,-17.67 1.621,-35.72 -0.019,-53.38 -1.95,-20.91 4.808,-27.36 26.234,-27.36 0.156,0 0.32,0 0.484,0 110.903,0.47 221.817,0.57 332.729,0.57 90.46,0 180.91,-0.07 271.36,-0.07 56.61,0 113.2,0.19 169.8,0.19" /><path
         id="path16"
         style="fill:#ffffff;fill-opacity:1;fill-rule:nonzero;stroke:none"
         d="m 685.883,868.961 c -18.25,0 -26.113,4.129 -24.574,24.121 1.726,22.316 0.839,44.898 0.254,67.356 -0.297,11.046 3.628,16.292 13.468,16.292 0.907,0 1.856,-0.042 2.86,-0.128 1.394,-0.122 2.793,-0.161 4.199,-0.161 2.473,0 4.957,0.122 7.43,0.122 115.875,0 231.777,-0.032 347.65,-0.032 192.38,0 384.73,0.082 577.1,0.528 0.1,0 0.21,0 0.32,0 21.64,0 30.47,-4.946 28.25,-27.86 -1.93,-19.949 -1.23,-40.277 -0.13,-60.359 0.82,-15.11 -4.62,-19.789 -19.11,-19.789 -0.27,0 -0.54,0 -0.82,0.008 -28.91,0.32 -57.83,0.402 -86.74,0.402 -33.05,0 -66.08,-0.109 -99.14,-0.109 -95.25,0 -190.52,0 -285.8,0 -69.94,0 -139.91,0.046 -209.85,0.046 -84.957,0 -169.891,-0.078 -254.844,-0.437 -0.176,0 -0.351,0 -0.523,0" /><path
         id="path18"
         style="fill:#ffffff;fill-opacity:1;fill-rule:nonzero;stroke:none"
         d="m 1620.27,1342.3 c -0.39,0 -0.78,0 -1.18,0.01 -51.05,0.58 -102.11,0.73 -153.17,0.73 -56.6,0 -113.19,-0.19 -169.8,-0.19 -90.45,0 -180.9,0.07 -271.36,0.07 -110.912,0 -221.826,-0.1 -332.729,-0.57 -0.164,0 -0.328,0 -0.484,0 -21.426,0 -28.184,6.45 -26.234,27.36 1.64,17.66 1.589,35.71 0.019,53.38 -1.836,20.51 4.223,27.52 25.805,27.52 0.226,0 0.453,0 0.679,0 80.137,-0.52 160.289,-0.65 240.438,-0.65 75.526,0 151.056,0.11 226.586,0.11 73.81,0 147.65,-0.09 221.48,-0.09 80.3,0 160.59,0.11 240.9,0.59 0.21,0 0.41,0 0.61,0 20.32,0 26.87,-5.88 24.94,-26.07 -1.7,-17.66 -1.76,-35.74 0,-53.37 2.15,-21.55 -4.47,-28.83 -26.5,-28.83" /><path
         id="path20"
         style="fill:#ffffff;fill-opacity:1;fill-rule:nonzero;stroke:none"
         d="m 681.961,431.121 c -21.543,0 -27.629,6.949 -25.965,27.527 1.633,20 1.121,40.274 0.109,60.332 -0.722,14.071 3.422,20.239 17.043,20.239 0.801,0 1.637,-0.02 2.504,-0.071 8.961,-0.429 17.938,-0.558 26.914,-0.558 13.469,0 26.946,0.289 40.414,0.289 287.93,0 575.88,0 863.79,0 30.29,0 30.31,-0.059 30.35,-30.938 0.02,-17.812 -1.21,-35.703 0.33,-53.382 1.65,-18.758 -5.69,-23.258 -23.25,-23.258 -0.15,0 -0.3,0 -0.46,0 -84.98,0.328 -169.99,0.41 -254.97,0.41 -71.37,0 -142.72,-0.063 -214.09,-0.063 -74.69,0 -149.407,0.114 -224.102,0.114 -79.336,0 -158.652,-0.121 -237.98,-0.633 -0.215,0 -0.426,-0.008 -0.637,-0.008" /><path
         id="path22"
         style="fill:#ffffff;fill-opacity:1;fill-rule:nonzero;stroke:none"
         d="m 275.477,347.898 c -15.372,0 -18.844,5.934 -18.75,20.34 0.57,79.641 0.722,159.313 -0.094,238.942 -0.164,16.57 5.617,20.511 20.644,20.511 0.258,0 0.524,0 0.789,0 40.157,-0.339 80.317,-0.55 120.465,-0.55 38.735,0 77.453,0.199 116.188,0.668 0.277,0 0.554,0 0.828,0 17.269,0 21.406,-6.11 20.937,-22.68 -1.113,-39.391 -0.339,-78.867 -0.339,-118.297 0,-39.453 -0.481,-78.91 0.234,-118.32 0.258,-14.172 -2.895,-20.614 -18.586,-20.614 -0.164,0 -0.328,0 -0.496,0 -40.207,0.352 -80.422,0.524 -120.641,0.524 -40.215,0 -80.433,-0.172 -120.648,-0.524 -0.18,0 -0.36,0 -0.531,0 m 49.273,228.934 c -12.441,0 -17.18,-4.23 -17.016,-17.293 0.555,-47.219 0.618,-94.449 -0.031,-141.68 -0.183,-13.257 3.602,-18.898 16.516,-18.898 0.621,0 1.265,0.008 1.933,0.039 9.793,0.371 19.594,0.48 29.407,0.48 14.191,0 28.394,-0.23 42.586,-0.23 14.117,0 28.242,0.199 42.355,0.199 9.883,0 19.766,-0.097 29.637,-0.429 0.636,-0.02 1.254,-0.04 1.855,-0.04 12.528,0 17.305,4.782 17.117,18.532 -0.703,47.207 -0.574,94.437 -0.066,141.66 0.125,12.699 -3.996,17.68 -16.836,17.68 -0.176,0 -0.352,0 -0.527,0 -24.395,-0.282 -48.785,-0.422 -73.18,-0.422 -24.383,0 -48.766,0.14 -73.148,0.402 -0.204,0 -0.403,0 -0.602,0" /><path
         id="path24"
         style="fill:#be3d3d;fill-opacity:1;fill-rule:nonzero;stroke:none"
         d="m 393.105,858.148 c -3.558,0 -7.746,1.813 -13.21,5.633 -22.622,15.801 -46.973,29.141 -70.598,43.52 v 0 c -14.774,12.301 -31.238,21.969 -48.231,30.836 v 0 c -26.32,17.136 -52.257,34.89 -79.125,51.121 -11.367,6.847 -11.882,11.782 -4.988,22.832 14.219,22.77 20.324,32.88 30.078,32.88 7.676,0 17.61,-6.26 35.535,-17.52 5.774,-3.63 12.004,-6.54 18.032,-9.79 v 0 c 0,0 0,0 0,0 15.996,-10.35 31.992,-20.699 47.976,-31.031 v 0 0 c 20.664,-13.418 41.555,-26.512 61.887,-40.399 3.508,-2.406 6.32,-3.734 8.812,-3.734 3.282,0 6.008,2.301 9.028,7.465 14.328,24.57 29.668,48.535 44.621,72.749 v 0 0 c 10.726,16.84 21.461,33.68 32.191,50.54 0,0 0,0 0.004,0 18.028,27.91 36.641,55.47 53.856,83.9 4.582,7.57 8.414,11.8 13.89,11.8 3.36,0 7.34,-1.59 12.496,-4.97 33.735,-22.16 34.172,-21.34 12.969,-54.93 -7.39,-11.73 -14.336,-23.74 -21.48,-35.63 v 0 c -17.192,-24.83 -34.164,-49.79 -48.008,-76.729 v 0 C 461.672,954.766 433.918,913.18 407.676,870.66 c -4.992,-8.101 -9.02,-12.512 -14.571,-12.512" /><path
         id="path26"
         style="fill:#be3d3d;fill-opacity:1;fill-rule:nonzero;stroke:none"
         d="m 395.086,1314.9 c -3.773,0 -8.191,1.91 -13.902,5.91 -23.235,16.28 -48.137,30.18 -72.356,45.09 v 0 c -14.719,11.55 -30.39,21.61 -47.207,29.85 v 0 c -25.703,16.75 -51.086,34 -77.258,49.97 -11.199,6.84 -12.027,12.27 -5.175,23.35 14.003,22.63 19.972,32.59 29.652,32.59 7.504,0 17.238,-5.99 34.683,-16.71 4.54,-2.79 9.418,-5.03 14.141,-7.52 v 0 c 15.766,-12.6 32.895,-23.03 50.863,-32.15 v 0 0 c 21.192,-13.99 42.559,-27.75 63.516,-42.08 3.492,-2.39 6.477,-3.7 9.168,-3.7 3.516,0 6.527,2.25 9.512,7.28 14.132,23.87 28.757,47.43 43.175,71.13 v 0 0 c 12.586,15.71 23.239,32.64 32.165,50.68 v 0 0 c 18.449,28.35 37.511,56.32 55.058,85.22 4.637,7.64 8.567,11.67 13.961,11.67 3.441,0 7.477,-1.64 12.672,-5.02 33.523,-21.78 33.906,-21 12.312,-55.28 -7.351,-11.72 -14.168,-23.77 -21.226,-35.67 -0.004,0 -0.004,-0.01 -0.004,-0.01 -18.121,-25.41 -35.195,-51.5 -49.832,-79.14 v 0 c -26.277,-40.65 -53.234,-80.88 -78.438,-122.19 -5.261,-8.62 -9.589,-13.27 -15.48,-13.27" /><path
         id="path28"
         style="fill:#ffffff;fill-opacity:1;fill-rule:nonzero;stroke:none"
         d="m 519.594,794.031 c -0.278,0 -0.551,0 -0.832,0.008 -38.746,0.461 -77.5,0.652 -116.246,0.652 -40.172,0 -80.336,-0.211 -120.504,-0.562 -0.219,0 -0.442,0 -0.66,0 -15.594,0 -20.926,4.859 -20.543,21 0.988,40.98 0.277,81.992 0.257,123.008 v 0 c 16.993,-8.867 33.457,-18.535 48.231,-30.836 v 0 0 c -0.242,-13.91 0.144,-27.871 -0.891,-41.742 -1.066,-14.258 3.293,-20.438 18.278,-20.438 0.347,0 0.699,0 1.058,0.008 23.684,0.422 47.371,0.609 71.063,0.609 24.281,0 48.566,-0.199 72.843,-0.59 0.282,0 0.551,-0.007 0.821,-0.007 14.168,0 17.469,6.058 17.238,19.269 -0.773,44.078 -0.652,88.188 -0.867,132.281 v 0 0 c 13.844,26.939 30.816,51.899 48.008,76.729 v 0 c 5.332,-5.94 3.355,-13.22 3.367,-19.98 0.129,-78.909 -0.352,-157.838 0.437,-236.749 0.176,-16.609 -3.91,-22.66 -21.058,-22.66" /><path
         id="path30"
         style="fill:#ffffff;fill-opacity:1;fill-rule:nonzero;stroke:none"
         d="m 279.371,1249.54 c -13.711,0 -18.754,4.44 -18.465,18.61 0.84,42.52 0.547,85.06 0.715,127.6 v 0 c 16.817,-8.24 32.488,-18.3 47.207,-29.85 v 0 0 c -0.09,-15.49 0.438,-31.01 -0.422,-46.45 -0.84,-15.09 3.742,-22.42 19.914,-22.42 0.301,0 0.61,0.01 0.918,0.01 22.981,0.38 45.965,0.55 68.953,0.55 24.262,0 48.524,-0.19 72.778,-0.54 0.297,0 0.59,0 0.883,0 13.359,0 18.171,4.55 17.906,18.58 -0.86,44.89 -0.586,89.82 -0.754,134.73 v 0 0 c 14.637,27.64 31.711,53.73 49.832,79.14 0.004,0.01 0.008,0.02 0.012,0.02 0.461,-88.14 0.793,-176.28 1.582,-264.41 0.097,-12.64 -5.785,-15.46 -16.809,-15.46 -0.078,0 -0.156,0 -0.234,0 -41.293,0.12 -82.582,0.21 -123.867,0.21 -39.93,0 -79.852,-0.09 -119.786,-0.32 -0.121,0 -0.242,0 -0.363,0" /><path
         id="path32"
         style="fill:#ffffff;fill-opacity:1;fill-rule:nonzero;stroke:none"
         d="m 308.574,986.629 c -15.984,10.332 -31.98,20.681 -47.976,31.031 v 0 c 2.027,54.28 2.093,55.92 53.347,55.92 1.555,0 3.145,-0.01 4.793,-0.01 48.782,-0.05 97.59,-0.19 146.379,-0.31 -0.004,0 -0.004,-0.01 -0.004,-0.01 -10.73,-16.86 -21.465,-33.7 -32.191,-50.54 v 0 c -1.266,0 -2.527,0 -3.793,0 -8.731,0 -17.461,-0.03 -26.191,-0.07 -8.743,-0.04 -17.485,-0.07 -26.223,-0.07 -15.735,0 -31.461,0.11 -47.172,0.56 -0.727,0.02 -1.434,0.03 -2.121,0.03 -14.149,0 -21.031,-4.64 -18.945,-20.46 0.695,-5.274 0.097,-10.712 0.097,-16.071 v 0" /><path
         id="path34"
         style="fill:#ffffff;fill-opacity:1;fill-rule:nonzero;stroke:none"
         d="m 308.527,1445.28 c -17.968,9.12 -35.097,19.55 -50.863,32.15 v 0 c 4.277,5.32 3.32,11.65 3.477,17.78 0.793,32.5 0.832,33.75 31.863,33.75 1.195,0 2.434,0 3.723,-0.01 56.449,-0.08 112.89,-0.24 169.336,-0.36 v 0 c -8.926,-18.04 -19.579,-34.97 -32.165,-50.68 v 0 c -26.464,0.09 -52.91,0.29 -79.355,0.29 -4.188,0 -8.379,-0.01 -12.57,-0.02 -0.602,0 -1.192,0 -1.774,0 -2.515,0 -4.832,0.01 -6.961,0.03 -2.121,0.01 -4.054,0.02 -5.824,0.02 -22.125,0 -18.316,-2.12 -18.887,-32.95 v 0" /><path
         id="path36"
         style="fill:#494241;fill-opacity:1;fill-rule:nonzero;stroke:none"
         d="m 324.219,398.961 c -12.914,0 -16.699,5.641 -16.516,18.898 0.649,47.231 0.586,94.461 0.031,141.68 -0.164,13.063 4.575,17.293 17.016,17.293 0.199,0 0.398,0 0.602,0 24.382,-0.262 48.765,-0.402 73.148,-0.402 24.395,0 48.785,0.14 73.18,0.422 0.175,0 0.351,0 0.527,0 12.84,0 16.961,-4.981 16.836,-17.68 -0.508,-47.223 -0.637,-94.453 0.066,-141.66 0.188,-13.75 -4.589,-18.532 -17.117,-18.532 -0.601,0 -1.219,0.02 -1.855,0.04 -9.871,0.332 -19.754,0.429 -29.637,0.429 -14.113,0 -28.238,-0.199 -42.355,-0.199 -14.192,0 -28.395,0.23 -42.586,0.23 -9.813,0 -19.614,-0.109 -29.407,-0.48 -0.668,-0.031 -1.312,-0.039 -1.933,-0.039" /><path
         id="path38"
         style="fill:#494241;fill-opacity:1;fill-rule:nonzero;stroke:none"
         d="m 326.684,845.121 c -14.985,0 -19.344,6.18 -18.278,20.438 1.035,13.871 0.649,27.832 0.891,41.742 v 0 c 23.625,-14.379 47.976,-27.719 70.598,-43.52 5.464,-3.82 9.652,-5.633 13.21,-5.633 5.551,0 9.579,4.411 14.571,12.512 26.242,42.52 53.996,84.106 81.164,126.031 v 0 c 0.215,-44.093 0.094,-88.203 0.867,-132.281 0.231,-13.211 -3.07,-19.269 -17.238,-19.269 -0.27,0 -0.539,0.007 -0.821,0.007 -24.277,0.391 -48.562,0.59 -72.843,0.59 -23.692,0 -47.379,-0.187 -71.063,-0.609 -0.359,-0.008 -0.711,-0.008 -1.058,-0.008" /><path
         id="path40"
         style="fill:#494241;fill-opacity:1;fill-rule:nonzero;stroke:none"
         d="m 379.273,942.496 c -2.492,0 -5.304,1.328 -8.812,3.734 -20.332,13.887 -41.223,26.981 -61.887,40.399 v 0 c 0,5.359 0.598,10.797 -0.097,16.071 -2.086,15.82 4.796,20.46 18.945,20.46 0.687,0 1.394,-0.01 2.121,-0.03 15.711,-0.45 31.437,-0.56 47.172,-0.56 8.738,0 17.48,0.03 26.223,0.07 8.73,0.04 17.46,0.07 26.191,0.07 1.266,0 2.527,0 3.793,0 v 0 c -14.953,-24.214 -30.293,-48.179 -44.621,-72.749 -3.02,-5.164 -5.746,-7.465 -9.028,-7.465" /><path
         id="path42"
         style="fill:#494241;fill-opacity:1;fill-rule:nonzero;stroke:none"
         d="m 328.32,1297.03 c -16.172,0 -20.754,7.33 -19.914,22.42 0.86,15.44 0.332,30.96 0.422,46.45 v 0 c 24.219,-14.91 49.121,-28.81 72.356,-45.09 5.711,-4 10.129,-5.91 13.902,-5.91 5.891,0 10.219,4.65 15.48,13.27 25.204,41.31 52.161,81.54 78.438,122.19 v 0 c 0.168,-44.91 -0.106,-89.84 0.754,-134.73 0.265,-14.03 -4.547,-18.58 -17.906,-18.58 -0.293,0 -0.586,0 -0.883,0 -24.254,0.35 -48.516,0.54 -72.778,0.54 -22.988,0 -45.972,-0.17 -68.953,-0.55 -0.308,0 -0.617,-0.01 -0.918,-0.01" /><path
         id="path44"
         style="fill:#494241;fill-opacity:1;fill-rule:nonzero;stroke:none"
         d="m 381.211,1399.5 c -2.691,0 -5.676,1.31 -9.168,3.7 -20.957,14.33 -42.324,28.09 -63.516,42.08 v 0 c 0.571,30.83 -3.238,32.95 18.887,32.95 1.77,0 3.703,-0.01 5.824,-0.02 2.129,-0.02 4.446,-0.03 6.961,-0.03 0.582,0 1.172,0 1.774,0 4.191,0.01 8.382,0.02 12.57,0.02 26.445,0 52.891,-0.2 79.355,-0.29 v 0 c -14.418,-23.7 -29.043,-47.26 -43.175,-71.13 -2.985,-5.03 -5.996,-7.28 -9.512,-7.28" /></g></g></svg>